<svg xmlns="http://www.w3.org/2000/svg" viewBox="0 0 600 360"><rect width="600" height="360" fill="#171717"/><circle cx="465" cy="70" r="150" fill="#c1121f" opacity=".22"/><g fill="none" stroke="#ffbe0b" stroke-width="10" stroke-linecap="round"><ellipse cx="300" cy="220" rx="108" ry="88"/><path d="M300 132v176M235 153c28 28 102 28 130 0M208 195c55 25 129 25 184 0M205 242c60 24 130 24 190 0M225 280c49 18 101 18 150 0M195 180l-73-45M405 180l73-45M193 230l-80 10M407 230l80 10M218 282l-66 54M382 282l66 54"/></g><text x="28" y="52" fill="white" font-family="Arial" font-size="23" font-weight="700">ПОСТІЛЬНІ КЛОПИ</text></svg>